<?xml version="1.0" standalone="no"?>
<!DOCTYPE svg PUBLIC "-//W3C//DTD SVG 20010904//EN" "http://www.w3.org/TR/2001/REC-SVG-20010904/DTD/svg10.dtd">
<!-- Created using Krita: https://krita.org -->
<svg xmlns="http://www.w3.org/2000/svg" 
    xmlns:xlink="http://www.w3.org/1999/xlink"
    xmlns:krita="http://krita.org/namespaces/svg/krita"
    xmlns:sodipodi="http://sodipodi.sourceforge.net/DTD/sodipodi-0.dtd"
    width="720pt"
    height="720pt"
    viewBox="0 0 720 720">
<defs/>
<path id="shape0" transform="translate(113.208136607964, 252.239999592959)" fill="none" stroke="#ff0085" stroke-width="1.18799995422363" stroke-linecap="square" stroke-linejoin="bevel" d="M72.3119 0C50.5219 16.7135 33.0954 38.3256 21.3684 62.2245C6.97024 91.5671 -0.336066 124.863 0.0118685 160.35" sodipodi:nodetypes="ccc"/><path id="shape1" transform="translate(100.089122392509, 407.293520089103)" fill="none" stroke="#ff0085" stroke-width="1.18799995422363" stroke-linecap="square" stroke-linejoin="bevel" d="M16.329 0C-9.66995 64.7597 0.27449 128.012 12.5954 148.662C20.5608 136.964 25.1197 118.862 34.9966 105.896" sodipodi:nodetypes="ccc"/><path id="shape2" transform="translate(65.9306359251248, 507.759227027064)" fill="none" stroke="#ff0085" stroke-width="1.18799995422363" stroke-linecap="square" stroke-linejoin="bevel" d="M69.4945 0C75.1104 45.4122 124.738 73.8349 161.814 84.174C65.8603 67.834 4.36348 131.188 0 211.368" sodipodi:nodetypes="ccc"/><path id="shape3" transform="translate(224.69025215103, 563.083275405678)" fill="none" stroke="#ff0085" stroke-width="1.18799995422363" stroke-linecap="square" stroke-linejoin="bevel" d="M0 0C7.717 11.796 18.5313 25.4241 27.1529 33.6017" sodipodi:nodetypes="cc"/><path id="shape4" transform="translate(129.909662165904, 604.491423850085)" fill="none" stroke="#ff0085" stroke-width="1.18799995422363" stroke-linecap="square" stroke-linejoin="bevel" d="M134.492 0C138.549 32.8011 139.797 45.477 108.018 70.9369C84.0237 93.387 32.0453 103.926 0 114.636" sodipodi:nodetypes="ccc"/><path id="shape5" transform="translate(178.589999535493, 693.96003471154)" fill="none" stroke="#ff0085" stroke-width="1.18799995422363" stroke-linecap="square" stroke-linejoin="bevel" d="M27.69 0C14.97 1.176 8.1 17.484 0 25.08" sodipodi:nodetypes="cc"/><path id="shape6" transform="translate(266.43784058994, 619.93466985672)" fill="none" stroke="#ff0085" stroke-width="1.18799995422363" stroke-linecap="square" stroke-linejoin="bevel" d="M0 6.61852C4.12385 4.63296 9.62231 1.98556 13.7462 0" sodipodi:nodetypes="cc"/><path id="shape7" transform="translate(255.840018182289, 658.800046820247)" fill="none" stroke="#ff0085" stroke-width="1.18799995422363" stroke-linecap="square" stroke-linejoin="bevel" d="M0 0C35.7475 17.9653 120.067 36.0359 170.07 60.45" sodipodi:nodetypes="cc"/><path id="shape8" transform="translate(217.200011526031, 484.080025688402)" fill="none" stroke="#ff0085" stroke-width="1.18799995422363" stroke-linecap="square" stroke-linejoin="bevel" d="M0 0C11.0244 84.0289 55.1197 150.857 116.88 162.48C109.937 153.051 103.884 140.928 98.4 123.12" sodipodi:nodetypes="ccc"/><path id="shape9" transform="translate(294.720002390752, 551.760004475846)" fill="none" stroke="#ff0085" stroke-width="1.18799995422363" stroke-linecap="square" stroke-linejoin="bevel" d="M0 44.88C20.832 56.904 40.7988 63.4407 61.44 54.96C37.8428 51.1153 19.704 35.928 6.96 0" sodipodi:nodetypes="ccc"/><path id="shape10" transform="translate(306.960009494302, 547.920016947219)" fill="none" stroke="#ff0085" stroke-width="1.18799995422363" stroke-linecap="square" stroke-linejoin="bevel" d="M0.48 0C0.336 4.896 0.144 11.424 0 16.32" sodipodi:nodetypes="cc"/><path id="shape11" transform="translate(348.720020184638, 609.840035298806)" fill="none" stroke="#ff0085" stroke-width="1.18799995422363" stroke-linecap="square" stroke-linejoin="bevel" d="M0 0C40.7481 20.1639 76.7206 65.4074 102.48 100.56" sodipodi:nodetypes="cc"/><path id="shape12" transform="translate(408.240023629779, 654.24003786877)" fill="none" stroke="#ff0085" stroke-width="1.18799995422363" stroke-linecap="square" stroke-linejoin="bevel" d="M0 2.4C14.184 2.2612 33.096 2.00057 47.28 0" sodipodi:nodetypes="cc"/><path id="shape13" transform="translate(446.495501761209, 603.642911351053)" fill="none" stroke="#ff0085" stroke-width="1.18799995422363" stroke-linecap="square" stroke-linejoin="bevel" d="M4.92146 0C0.756171 2.02476 0.808544 16.6374 0 25.7953" sodipodi:nodetypes="cc"/><path id="shape14" transform="translate(450.720009994562, 600.079104243626)" fill="none" stroke="#ff0085" stroke-width="1.18799995422363" stroke-linecap="square" stroke-linejoin="bevel" d="M1.20608 0C9.43712 38.5886 4.82495 84.5243 0 119.081" sodipodi:nodetypes="cc"/><path id="shape15" transform="translate(494.310011689606, 677.880026766047)" fill="none" stroke="#ff0085" stroke-width="1.18799995422363" stroke-linecap="square" stroke-linejoin="bevel" d="M21.33 0C15.438 12.996 6.372 28.974 0 41.61" sodipodi:nodetypes="cc"/><path id="shape16" transform="translate(510.771508174163, 611.788791802742)" fill="none" stroke="#ff0085" stroke-width="1.18799995422363" stroke-linecap="square" stroke-linejoin="bevel" d="M1.9092 0C11.7565 21.3983 4.96913 70.6764 0 107.509" sodipodi:nodetypes="cc"/><path id="shape17" transform="translate(524.135826230053, 616.710248422962)" fill="none" stroke="#ff0085" stroke-width="1.18799995422363" stroke-linecap="square" stroke-linejoin="bevel" d="M0 102.672C4.64099 71.6131 15.0513 29.8636 4.75176 0" sodipodi:nodetypes="cc"/><path id="shape18" transform="translate(443.780207508637, 581.750880053387)" fill="none" stroke="#ff0085" stroke-width="1.18799995422363" stroke-linecap="square" stroke-linejoin="bevel" d="M0 19.007C17.9455 17.0909 40.5951 10.4898 55.8332 0" sodipodi:nodetypes="cc"/><path id="shape19" transform="translate(477.721332365894, 590.236161267702)" fill="none" stroke="#ff0085" stroke-width="1.18799995422363" stroke-linecap="square" stroke-linejoin="bevel" d="M0 0C5.2439 3.56382 12.2358 8.31558 17.4797 11.8794" sodipodi:nodetypes="cc"/><path id="shape20" transform="translate(507.928933488853, 608.903779939193)" fill="none" stroke="#ff0085" stroke-width="1.18799995422363" stroke-linecap="square" stroke-linejoin="bevel" d="M0 0C8.65499 4.02202 20.4018 10.129 28.85 13.4067C54.5945 28.1566 78.5036 77.4452 90.5711 110.466" sodipodi:nodetypes="ccc"/><path id="shape21" transform="translate(269.4925326644, 445.307560271653)" fill="none" stroke="#ff0085" stroke-width="1.18799995422363" stroke-linecap="square" stroke-linejoin="bevel" d="M0 0C9.12534 22.5598 22.8592 42.4485 39.0015 57.7324C61.3454 78.8881 88.3039 91.2214 114.042 89.6046" sodipodi:nodetypes="ccc"/><path id="shape22" transform="translate(281.371926421646, 528.123905322174)" fill="none" stroke="#ff0085" stroke-width="1.18799995422363" stroke-linecap="square" stroke-linejoin="bevel" d="M107.593 0C103.866 18.3557 30.5471 31.8574 0 7.46705" sodipodi:nodetypes="cc"/><path id="shape23" transform="translate(301.905513612811, 302.754827293949)" fill="none" stroke="#ff0085" stroke-width="1.18799995422363" stroke-linecap="square" stroke-linejoin="bevel" d="M20.5352 0C2.31373 64.3939 -2.12505 129.087 0.849314 194.143" sodipodi:nodetypes="cc"/><path id="shape24" transform="translate(281.711330329572, 360)" fill="none" stroke="#ff0085" stroke-width="1.18799995422363" stroke-linecap="square" stroke-linejoin="bevel" d="M61.7728 0C35.3118 5.28398 12.9741 27.8617 0 49.33" sodipodi:nodetypes="cc"/><path id="shape25" transform="translate(355.702980946254, 428.662007522805)" fill="none" stroke="#ff0085" stroke-width="1.18799995422363" stroke-linecap="square" stroke-linejoin="bevel" d="M11.8794 0.0143903C8.11959 -0.222095 3.44377 2.4978 0 5.10556" sodipodi:nodetypes="cc"/><path id="shape26" transform="translate(331.265371568267, 301.736593569866)" fill="none" stroke="#ff0085" stroke-width="1.18799995422363" stroke-linecap="square" stroke-linejoin="bevel" d="M0 0C15.5437 41.9482 43.9568 76.6882 67.2034 96.7322" sodipodi:nodetypes="cc"/><path id="shape27" transform="translate(396.092918668205, 271.528993088744)" fill="none" stroke="#ff0085" stroke-width="1.18799995422363" stroke-linecap="square" stroke-linejoin="bevel" d="M0 100.126C3.67288 130.07 5.37958 188.708 9.84293 197.537C22.2718 200.582 42.9184 165.64 51.5905 156.129C49.8307 165.905 53.5145 182.22 56.0029 182.603C57.9449 182.902 64.9025 171.665 66.0271 164.791C81.5516 140.747 91.3057 102.73 94.1349 67.8368C96.3416 40.6205 94.3353 15.3042 87.5681 0" sodipodi:nodetypes="ccccccc"/><path id="shape28" transform="translate(306.851473156193, 448.909570095227)" fill="none" stroke="#ff0085" stroke-width="1.18799995422363" stroke-linecap="square" stroke-linejoin="bevel" d="M2.52189 37.2971C-1.02496 36.5504 0.156091 24.4434 0.315716 18.9689C0.899382 16.4121 0.322828 11.8302 1.84307 10.4836C18.1656 1.76602 69.3387 -5.78421 76.0044 6.24094C76.0039 9.64688 75.5037 12.1319 74.1377 13.5383C50.5712 15.4386 24.4818 22.7024 3.20071 33.903" sodipodi:nodetypes="cccccc"/><path id="shape29" transform="translate(332.623040416598, 485.697521261379)" fill="none" stroke="#ff0085" stroke-width="1.18799995422363" stroke-linecap="square" stroke-linejoin="bevel" d="M0 0C8.21309 6.41487 19.1639 14.968 27.377 21.3829" sodipodi:nodetypes="cc"/><path id="shape30" transform="translate(321.252763014602, 487.733988855766)" fill="none" stroke="#ff0085" stroke-width="1.18799995422363" stroke-linecap="square" stroke-linejoin="bevel" d="M0 0C9.5714 7.94222 22.3333 18.5319 31.9047 26.4741" sodipodi:nodetypes="cc"/><path id="shape31" transform="translate(308.355134916815, 489.600750817288)" fill="none" stroke="#ff0085" stroke-width="1.18799995422363" stroke-linecap="square" stroke-linejoin="bevel" d="M0 0C9.97869 8.24769 23.2836 19.2446 33.2623 27.4923" sodipodi:nodetypes="cc"/><path id="shape32" transform="translate(299.530442007803, 493.164569107466)" fill="none" stroke="#ff0085" stroke-width="1.18799995422363" stroke-linecap="square" stroke-linejoin="bevel" d="M30.7167 24.9467C21.5017 17.4627 9.21502 7.48402 0 0" sodipodi:nodetypes="cc"/><path id="shape33" transform="translate(398.880000837881, 496.80000104357)" fill="none" stroke="#ff0085" stroke-width="1.18799995422363" stroke-linecap="square" stroke-linejoin="bevel" d="M0 2.88C14.3128 18.3855 41.1468 33.8875 60.72 38.16C73.9389 31.0548 86.9485 12.8056 95.28 0" sodipodi:nodetypes="ccc"/><path id="shape34" transform="translate(491.467503932435, 304.451899880797)" fill="none" stroke="#ff0085" stroke-width="1.18799995422363" stroke-linecap="square" stroke-linejoin="bevel" d="M0 0C23.5589 14.5165 48.9583 50.1917 68.2217 76.3675" sodipodi:nodetypes="cc"/><path id="shape35" transform="translate(484.679278739998, 403.242971541597)" fill="none" stroke="#ff0085" stroke-width="1.18799995422363" stroke-linecap="square" stroke-linejoin="bevel" d="M0 33.5793C7.50099 14.2668 40.0678 -2.53364 53.2876 0.317016C53.6707 5.47004 62.1928 12.6017 63.6007 16.277C52.6469 21.018 21.292 21.9451 4.07294 33.2399" sodipodi:nodetypes="cccc"/><path id="shape36" transform="translate(546.854258786829, 370.297684247435)" fill="none" stroke="#ff0085" stroke-width="1.18799995422363" stroke-linecap="square" stroke-linejoin="bevel" d="M1.97374 0C-4.60067 10.6881 7.07344 37.2989 10.459 53.627" sodipodi:nodetypes="cc"/><path id="shape37" transform="translate(546.112716731552, 356.042411343318)" fill="none" stroke="#ff0085" stroke-width="1.18799995422363" stroke-linecap="square" stroke-linejoin="bevel" d="M6.44881 0C23.4873 27.3 10.1032 87.7285 0 111.327C18.2763 114.993 38.8286 91.4374 46.4993 78.0646" sodipodi:nodetypes="ccc"/><path id="shape38" transform="translate(580.053842693737, 375.728264401385)" fill="none" stroke="#ff0085" stroke-width="1.18799995422363" stroke-linecap="square" stroke-linejoin="bevel" d="M0 73.9917C12.0224 84.1668 30.0504 105.607 37.6746 110.309C46.4267 105.041 50.8056 72.7447 48.1964 56.0029C60.2315 66.1027 94.7915 65.0143 97.7504 57.6999C91.3058 46.0665 64.9633 17.31 50.9117 0" sodipodi:nodetypes="ccccc"/><path id="shape39" transform="translate(584.640026395687, 230.400010402241)" fill="none" stroke="#ff0085" stroke-width="1.18799995422363" stroke-linecap="square" stroke-linejoin="bevel" d="M0 0C34.1956 9.268 41.9115 48.528 45.1375 71.5063C53.7831 109.543 53.555 122.791 61.599 162.299" sodipodi:nodetypes="ccc"/><path id="shape40" transform="translate(491.128091654151, 461.938723387215)" fill="none" stroke="#ff0085" stroke-width="1.18799995422363" stroke-linecap="square" stroke-linejoin="bevel" d="M76.3675 0C102.57 59.6006 56.8761 88.8298 13.237 116.079C12.1691 130.2 3.15935 143.619 0 153.074C10.173 154.709 51.5756 125.761 56.6817 116.079C58.0992 124.625 50.4087 147.687 44.8023 158.844C84.5031 151.028 118.678 59.328 109.29 8.48528" sodipodi:nodetypes="cccccc"/><path id="shape41" transform="translate(572.247382535521, 588.878534222496)" fill="none" stroke="#ff0085" stroke-width="1.18799995422363" stroke-linecap="square" stroke-linejoin="bevel" d="M0 0C37.3613 20.2159 59.1792 64.2217 54.3927 104.722C53.3025 112.835 47.3422 112.491 42.3927 104.962C44.0268 112.246 43.9841 122.399 40.7127 125.122C37.9823 127.393 29.0727 125.506 23.9127 123.442" sodipodi:nodetypes="ccccc"/><path id="shape42" transform="translate(520.147767799817, 443.610526926174)" fill="none" stroke="#ff0085" stroke-width="1.18799995422363" stroke-linecap="square" stroke-linejoin="bevel" d="M0 0C9.26593 8.09496 21.6205 18.8882 30.8864 26.9832" sodipodi:nodetypes="cc"/><path id="shape43" transform="translate(527.445110056063, 438.179946642456)" fill="none" stroke="#ff0085" stroke-width="1.18799995422363" stroke-linecap="square" stroke-linejoin="bevel" d="M0 0C11.6083 9.06176 25.8919 22.7362 36.1473 33.6017" sodipodi:nodetypes="cc"/><path id="shape44" transform="translate(537.457742454167, 433.937305795802)" fill="none" stroke="#ff0085" stroke-width="1.18799995422363" stroke-linecap="square" stroke-linejoin="bevel" d="M0 0C10.1823 9.97869 23.7588 23.2836 33.9411 33.2623" sodipodi:nodetypes="cc"/><path id="shape45" transform="translate(547.97949175387, 431.731132555542)" fill="none" stroke="#ff0085" stroke-width="1.18799995422363" stroke-linecap="square" stroke-linejoin="bevel" d="M0 0C7.73858 8.29861 18.0567 19.3634 25.7953 27.662" sodipodi:nodetypes="cc"/><path id="shape46" transform="translate(424.94288358553, 5.76999123079394)" fill="none" stroke="#ff0085" stroke-width="1.18799995422363" stroke-linecap="square" stroke-linejoin="bevel" d="M0 145.947C44.7892 110.419 55.2278 10.8181 43.1052 0C76.4376 32.8197 78.2732 62.8905 68.3114 87.5657C58.4458 112.003 37.0095 131.148 23.1371 142.43" sodipodi:nodetypes="cccc"/><path id="shape47" transform="translate(476.1600325635, 0.933380985986135)" fill="none" stroke="#ff0085" stroke-width="1.18799995422363" stroke-linecap="square" stroke-linejoin="bevel" d="M73.262 0C67.5894 36.7309 45.2388 110.893 19.5629 143.873C13.1791 152.073 6.58972 157.727 0 159.627" sodipodi:nodetypes="ccc"/><path id="shape48" transform="translate(545.160007346247, 1.1879394397452)" fill="none" stroke="#ff0085" stroke-width="1.18799995422363" stroke-linecap="square" stroke-linejoin="bevel" d="M165.991 0C127.45 57.3944 71.7049 131.575 64.68 171.132C63.0454 190.839 57.006 213.186 48.9794 222.654C33.4943 234.958 17.9224 231.379 0 231.852" sodipodi:nodetypes="cccc"/><path id="shape49" transform="translate(270.127892617601, 215.760000340157)" fill="none" stroke="#ff0085" stroke-width="1.18799995422363" stroke-linecap="square" stroke-linejoin="bevel" d="M302.459 3.32996C283.305 9.23959 266.887 23.9411 251.887 36.7619C236.651 48.2667 228.299 55.5743 206.066 54.7507C157.199 61.3473 124.841 68.7402 85.2357 82.243C72.7424 83.2631 58.4679 86.539 46.7921 87.24C35.7576 87.9024 18.4512 87.6094 9.547 86.9948C4.66204 83.1891 -4.32465 72.0849 2.41936 62.5572C10.9009 54.6123 30.7296 44.3557 40.094 45.926C49.5726 41.7404 60.32 37.4184 72.0411 33.6224C82.4243 25.342 97.9405 9.36775 107.512 0" sodipodi:nodetypes="cccccccccc"/><path id="shape51" transform="translate(176.160008943534, 172.930031746276)" fill="none" stroke="#ff0085" stroke-width="1.18799995422363" stroke-linecap="square" stroke-linejoin="bevel" d="M183.84 58.3787C163.917 47.1951 133.957 45.927 100.46 42.5961C80.3912 54.3227 40.5705 82.7115 9.95999 78.95C3.25334 76.2581 1.86202 74.3133 0 69.4699C0.294671 63.4186 6.29949 56.9602 10.32 52.9099C28.2971 43.477 50.6083 31.1463 63.36 19.3099C70.7763 12.6075 75.9241 4.11657 84.7624 1.18794C88.7807 -0.149207 101.727 0.271066 113.188 1.01823C135.021 2.02478 159.725 2.97715 173.434 0" sodipodi:nodetypes="ccccccccc"/><path id="shape52" transform="translate(178.190912155597, 229.611718234784)" fill="none" stroke="#ff0085" stroke-width="1.18799995422363" stroke-linecap="square" stroke-linejoin="bevel" d="M0 15.4432C6.41487 10.8102 14.968 4.63296 21.3829 0" sodipodi:nodetypes="cc"/><path id="shape53" transform="translate(285.444853387613, 150.1894791289)" fill="none" stroke="#ff0085" stroke-width="1.18799995422363" stroke-linecap="square" stroke-linejoin="bevel" d="M0 22.9103C9.96422 14.2372 25.8129 1.9923 38.0141 0C57.0387 2.93027 82.4382 10.5787 102.163 14.2553" sodipodi:nodetypes="ccc"/><path id="shape54" transform="translate(356.160014326929, 144.073284649639)" fill="none" stroke="#ff0085" stroke-width="1.18799995422363" stroke-linecap="square" stroke-linejoin="bevel" d="M0 13.0667C7.31977 6.52818 17.4033 1.82294 22.623 0.00678861C31.3978 -0.330385 55.2854 12.0182 75.062 9.00119" sodipodi:nodetypes="ccc"/><path id="shape55" transform="translate(422.397299708044, 145.946837183173)" fill="none" stroke="#ff0085" stroke-width="1.18799995422363" stroke-linecap="square" stroke-linejoin="bevel" d="M71.9552 0C55.7144 1.22188 33.8441 1.50466 17.8191 4.07293C12.4004 6.63843 5.34573 7.16158 0 8.48528" sodipodi:nodetypes="ccc"/><path id="shape56" transform="translate(272.921700678531, 274.92001565704)" fill="none" stroke="#ff0085" stroke-width="1.18799995422363" stroke-linecap="square" stroke-linejoin="bevel" d="M28.9983 0C20.4663 0.864 5.68882 -0.279437 0.558316 2.88C-1.76156 6.52558 3.60608 21.8019 8.23832 24.84C15.0458 24.6855 25.3743 23.58 32.7183 23.04" sodipodi:nodetypes="cccc"/>
</svg>
