<?xml version="1.0" standalone="no"?>
<!DOCTYPE svg PUBLIC "-//W3C//DTD SVG 20010904//EN" "http://www.w3.org/TR/2001/REC-SVG-20010904/DTD/svg10.dtd">
<!-- Created using Krita: https://krita.org -->
<svg xmlns="http://www.w3.org/2000/svg" 
    xmlns:xlink="http://www.w3.org/1999/xlink"
    xmlns:krita="http://krita.org/namespaces/svg/krita"
    xmlns:sodipodi="http://sodipodi.sourceforge.net/DTD/sodipodi-0.dtd"
    width="720pt"
    height="720pt"
    viewBox="0 0 720 720">
<defs/>
<path id="shape0" transform="translate(216.886444901537, 26.4787420237862)" fill="none" stroke="#ff00ab" stroke-width="2.4" stroke-linecap="square" stroke-linejoin="bevel" d="M24.7935 7.12126C-27.7852 56.0209 14.9863 122.47 45.4784 123.202C61.7968 126.517 98.6255 116.706 113.361 92.6546C122.89 72.6896 110.409 22.8687 94.6335 9.76126C81.5729 -1.09042 39.9231 -4.17212 24.7935 7.12126Z" sodipodi:nodetypes="ccccc"/><path id="shape1" transform="translate(251.197478217568, 53.5507262542679)" fill="none" stroke="#ff00ab" stroke-width="2.4" stroke-linecap="square" stroke-linejoin="bevel" d="M0.136551 9.74947C-1.36065 6.78892 9.89107 -3.80804 12.5251 1.4339C17.9811 8.4125 2.72839 13.0939 0.136551 9.74947Z" sodipodi:nodetypes="ccc"/><path id="shape2" transform="translate(277.638401340701, 37.7614668651015)" fill="none" stroke="#ff00ab" stroke-width="2.4" stroke-linecap="square" stroke-linejoin="bevel" d="M9.83104e-09 3.64671C0.197424 -0.410351 14.3377 -1.82504 14.0856 3.3073C14.0874 9.95992 -0.00042972 8.8927 9.83104e-09 3.64671Z" sodipodi:nodetypes="ccc"/><path id="shape3" transform="translate(259.479899550712, 58.5484403826)" fill="none" stroke="#ff00ab" stroke-width="2.4" stroke-linecap="square" stroke-linejoin="bevel" d="M32.5835 0C34.8066 16.9706 36.5256 43.293 28.6803 49.2146C22.5421 57.9357 6.49572 52.5549 0 43.4446" sodipodi:nodetypes="ccc"/><path id="shape4" transform="translate(265.439980707141, 171.839987510228)" fill="none" stroke="#ff00ab" stroke-width="2.4" stroke-linecap="square" stroke-linejoin="bevel" d="M24.48 0C16.9449 21.4336 2.82786 96.5839 1.44 138.24C0.183766 175.945 16.3812 227.016 13.92 264.48C15.4493 285.587 9.92542 303.008 0 324C18.9449 320.877 94.6418 291.395 116.64 275.04C119.299 235.277 81.2494 180.996 67.68 140.16C53.7571 98.2604 35.4393 17.5715 24.48 0Z" sodipodi:nodetypes="ccccccc"/><path id="shape5" transform="translate(265.080190836931, 150.359186351806)" fill="none" stroke="#ff00ab" stroke-width="2.4" stroke-linecap="square" stroke-linejoin="bevel" d="M0 0C2.74923 22.4011 7.77251 61.6031 10.5217 84.0043" sodipodi:nodetypes="cc"/><path id="shape6" transform="translate(302.076017727105, 142.892138722597)" fill="none" stroke="#ff00ab" stroke-width="2.4" stroke-linecap="square" stroke-linejoin="bevel" d="M0 0C1.62917 21.2811 3.12258 53.5591 4.75175 74.8402" sodipodi:nodetypes="cc"/><path id="shape7" transform="translate(262.207979231913, 369.599974883862)" fill="none" stroke="#ff00ab" stroke-width="2.4" stroke-linecap="square" stroke-linejoin="bevel" d="M22.432 329.28C21.3837 291.392 17.5914 245.009 7.62397 206.381C5.22396 183.407 -2.53568 151.864 0.835747 129.674C34.1264 91.3125 47.7877 30.3317 54.112 0C65.6911 16.5133 93.3323 85.866 97.792 134.88C127.733 183.024 170.858 242.681 180.352 296.64" sodipodi:nodetypes="cccccc"/><path id="shape8" transform="translate(320.880016731712, 181.510856194935)" fill="none" stroke="#ff00ab" stroke-width="2.4" stroke-linecap="square" stroke-linejoin="bevel" d="M0 88.9692C30.6749 72.3747 56.9309 73.653 82.8 70.4892C142.297 52.9302 205.275 37.8874 258.48 18.4091C266.507 2.44944 282.642 -2.49925 299.76 1.12915" sodipodi:nodetypes="cccc"/><path id="shape9" transform="translate(579.720011068775, 165.840001078668)" fill="none" stroke="#ff00ab" stroke-width="2.4" stroke-linecap="square" stroke-linejoin="bevel" d="M8.03999 0C7.89599 8.064 6.17819 24.3313 0 33.12C11.3404 30.2547 19.992 44.856 25.32 52.56" sodipodi:nodetypes="ccc"/><path id="shape10" transform="translate(114.32056724436, 143.358146054316)" fill="none" stroke="#ff00ab" stroke-width="2.4" stroke-linecap="square" stroke-linejoin="bevel" d="M153.039 158.322C116.139 158.43 37.5785 182.374 26.0794 178.482C-7.38105 162.956 -1.90177 97.9895 5.91944 68.8019C13.7742 48.3268 36.7529 28.0735 49.2394 17.0819C60.2664 0.539092 71.3218 -3.82566 95.6794 3.28185C103.269 6.19172 119.065 19.3957 119.679 28.2419" sodipodi:nodetypes="cccccc"/><path id="shape11" transform="translate(167.754788532176, 119.76000010179)" fill="none" stroke="#ff00ab" stroke-width="2.4" stroke-linecap="square" stroke-linejoin="bevel" d="M14.8852 0C8.4948 4.77123 -4.29618 22.1402 1.44521 32.64C21.7665 31.3078 29.2068 37.2889 38.1652 43.68" sodipodi:nodetypes="ccc"/><path id="shape12" transform="translate(565.798582408378, 461.259912113369)" fill="none" stroke="#ff00ab" stroke-width="2.4" stroke-linecap="square" stroke-linejoin="bevel" d="M73.3128 0C51.319 1.12006 17.0901 -1.01544 0 3.73352C2.62561 42.5218 15.8687 205.657 18.8414 242.9C36.1034 239.478 57.1454 236.348 73.5614 233.54" sodipodi:nodetypes="cccc"/><path id="shape13" transform="translate(565.270201833142, 438.239999099596)" fill="none" stroke="#ff00ab" stroke-width="2.4" stroke-linecap="square" stroke-linejoin="bevel" d="M56.3298 21.6C57.0699 8.16207 39.2143 1.76326 28.2498 0C18.4978 5.42982 7.58818 4.08116 2.3298 4.8C-0.614239 8.16253 -0.710964 19.3684 1.71633 26.2443" sodipodi:nodetypes="cccc"/><path id="shape14" transform="translate(610.841888240304, 612.565961823187)" fill="none" stroke="#ff00ab" stroke-width="2.4" stroke-linecap="square" stroke-linejoin="bevel" d="M24.8754 17.3813C22.8555 11.1021 10.1096 -1.0399 6.8866 0.0713592C2.19552 1.68879 -2.73991 29.3766 1.79543 36.049C4.14845 39.5107 16.7819 42.5645 20.1236 40.4613C24.4308 37.7505 26.6439 22.8791 24.8754 17.3813Z" sodipodi:nodetypes="ccccc"/><path id="shape15" transform="translate(591.835277991787, 499.952783345587)" fill="none" stroke="#ff00ab" stroke-width="2.4" stroke-linecap="square" stroke-linejoin="bevel" d="M47.6155 0C28.5962 1.63357 6.35845 2.79772 1.11619 12.8976C-4.94492 29.0268 14.877 78.9744 31.6632 88.9257C34.6043 90.6693 44.0642 89.6178 45.9185 87.2287C44.3282 65.6298 37.9249 27.0194 34.5647 1.76724" sodipodi:nodetypes="ccccc"/><path id="shape16" transform="translate(595.800025614441, 537.625668652227)" fill="none" stroke="#ff00ab" stroke-width="2.4" stroke-linecap="square" stroke-linejoin="bevel" d="M0 2.25435C13.477 -0.145646 29.7349 0.00176435 42.972 0.00176435" sodipodi:nodetypes="cc"/>
</svg>
